:SAMPLES-PER-SECOND 30
:FULLY-SPECIFIED
:DEGREES
437
root  -4.67215 39.3739 -22.6547 158.52 -77.9829 -163.07
RightUpLeg  14.3865 -11.4295 -2.8042
RightLeg  12.6062 -17.9052 3.12009
RightFoot  -16.7421 0.0713106 3.96329
RightToes  0.000482159 0.542163 -0.142577
Spine  11.1221 -0.391929 17.5396
Spine1  12.626 4.02869 -9.59904
HEad  2.87849 3.62228 -7.43572
LeftShoulder1  8.50549 -13.2704 -44.1494
LeftArm  -18.4941 19.6519 -24.4861
LeftForeArm  41.7951 -76.7804 -52.963
LeftHand  -0.25398 0.0180481 5.50724
RightShoulder  5.04654 9.23091 33.6833
RightArm  -5.0425 -15.328 24.7519
RightForeArm  17.5939 77.2611 72.7511
RightHand  0.71876 -12.5403 -12.597
LeftUpLeg  -16.279 2.86075 1.56055
LeftLeg  -6.83579 26.2134 -9.35633
LeftFoot  -3.61009 0.420358 -5.8122
LeftToes  1.06248e-005 4.65854e-005 -8.185e-006
438
root  -6.26033 38.9967 -23.1502 154.835 -78.3627 -160.771
RightUpLeg  18.6118 -13.5866 -3.91705
RightLeg  13.8184 -15.521 2.59856
RightFoot  -18.1306 0.175536 5.01637
RightToes  0.000482159 0.542163 -0.142577
Spine  13.0093 -0.611923 17.5261
Spine1  12.0947 4.28542 -10.002
HEad  3.43866 3.2931 -6.68488
LeftShoulder1  8.36864 -13.1504 -43.7309
LeftArm  -18.3192 19.7468 -24.4201
LeftForeArm  42.6584 -76.9363 -53.9471
LeftHand  -0.25398 0.0180481 5.50724
RightShoulder  5.08076 9.26633 33.8401
RightArm  -4.91067 -15.1591 24.9759
RightForeArm  16.4566 77.1895 71.7755
RightHand  0.69488 -12.0187 -13.107
LeftUpLeg  -15.236 3.02849 1.02893
LeftLeg  -6.75866 29.2268 -9.77717
LeftFoot  -4.19816 0.352704 -5.34129
LeftToes  1.06248e-005 4.65854e-005 -8.185e-006
439
root  -7.8908 38.6235 -23.6447 154.58 -79.147 -162.054
RightUpLeg  22.9829 -18.8318 -7.76309
RightLeg  16.1988 -8.70474 1.42967
RightFoot  -19.3514 0.468706 8.39896
RightToes  0.000482159 0.542163 -0.142577
Spine  15.148 -0.736601 16.1126
Spine1  11.8568 4.48516 -10.077
HEad  3.62629 2.88507 -5.89277
LeftShoulder1  8.25361 -13.0365 -43.4096
LeftArm  -17.8044 19.4531 -24.0415
LeftForeArm  42.7408 -76.9659 -54.1799
LeftHand  -0.25398 0.0180481 5.50724
RightShoulder  5.10687 9.26096 34.0592
RightArm  -5.13304 -15.384 25.3918
RightForeArm  16.0207 77.152 71.2253
RightHand  0.693603 -11.9778 -13.1652
LeftUpLeg  -14.958 4.71122 -0.506461
LeftLeg  -1.23765 28.6762 -8.02913
LeftFoot  -0.580822 -0.0722963 0.547039
LeftToes  1.06248e-005 4.65854e-005 -8.185e-006
440
root  -9.55598 38.2418 -24.097 158.328 -79.5448 -167.009
RightUpLeg  25.3481 -23.7442 -12.6766
RightLeg  21.7392 -0.435085 -0.357402
RightFoot  -19.1559 0.868049 14.9987
RightToes  0.000482159 0.542163 -0.142577
Spine  16.8078 -0.383019 14.02
Spine1  11.7585 4.69939 -9.90835
HEad  3.3895 2.65169 -5.33771
LeftShoulder1  8.22783 -12.9859 -43.4066
LeftArm  -17.3884 18.7904 -23.4187
LeftForeArm  41.0163 -76.6843 -52.5172
LeftHand  -0.25398 0.0180481 5.50724
RightShoulder  5.18268 9.34475 34.3844
RightArm  -5.67437 -15.611 26.0228
RightForeArm  14.4721 77.0059 69.2547
RightHand  0.719811 -12.3879 -12.8646
LeftUpLeg  -17.4918 13.1151 -4.65162
LeftLeg  9.46851 19.26 -2.45034
LeftFoot  3.14777 -1.16251 9.02936
LeftToes  1.06248e-005 4.65854e-005 -8.185e-006
441
root  -11.1329 38.0666 -24.4829 165.262 -79.9242 -174.399
RightUpLeg  21.6591 -19.4402 -12.7436
RightLeg  32.084 -2.775 -2.25932
RightFoot  -13.2672 0.252773 19.2127
RightToes  0.000482159 0.542163 -0.142577
Spine  18.0627 0.0237691 11.49
Spine1  11.5869 4.67684 -9.35546
HEad  2.97062 2.73687 -5.22844
LeftShoulder1  8.3685 -13.1253 -43.7988
LeftArm  -17.3592 17.9066 -22.7149
LeftForeArm  37.4369 -76.0011 -48.8964
LeftHand  -0.25398 0.0180481 5.50724
RightShoulder  5.29579 9.52284 34.6973
RightArm  -6.2966 -15.3641 26.6696
RightForeArm  11.3929 76.6963 65.7961
RightHand  0.763541 -12.8653 -12.7487
LeftUpLeg  -20.3418 24.5687 -10.5867
LeftLeg  16.6792 6.34968 1.97988
LeftFoot  3.81871 -2.02795 15.0794
LeftToes  1.06248e-005 4.65854e-005 -8.185e-006
442
root  -12.5464 38.0717 -24.779 174.615 -80.2594 176.687
RightUpLeg  13.2976 -15.7983 -12.5482
RightLeg  46.0856 -4.19451 -4.91513
RightFoot  -1.19627 -1.26548 15.0744
RightToes  0.000482159 0.542163 -0.142577
Spine  19.0365 0.225888 8.86866
Spine1  11.3995 4.36783 -8.59663
HEad  2.37229 3.18254 -5.66465
LeftShoulder1  8.62098 -13.4357 -44.3203
LeftArm  -17.5257 16.8829 -22.108
LeftForeArm  33.5337 -75.124 -45.0351
LeftHand  -0.25398 0.0180481 5.50724
RightShoulder  5.38073 9.69454 34.8104
RightArm  -6.67219 -14.2945 26.9418
RightForeArm  8.1652 76.3428 62.5988
RightHand  0.801495 -13.0843 -12.9599
LeftUpLeg  -21.1422 24.7807 -12.0238
LeftLeg  21.2158 6.67765 3.2903
LeftFoot  0.813759 -1.71729 15.876
LeftToes  1.06248e-005 4.65854e-005 -8.185e-006
443
root  -13.7532 38.05 -24.9806 -172.733 -79.9911 165.184
RightUpLeg  2.45594 -12.4927 -12.8455
RightLeg  59.0177 -2.85876 -5.52256
RightFoot  9.28009 -1.1918 6.66465
RightToes  0.000482159 0.542163 -0.142577
Spine  19.8745 0.41659 5.84569
Spine1  11.4678 3.908 -7.99346
HEad  1.42137 4.03948 -6.57111
LeftShoulder1  8.81396 -13.7042 -44.6198
LeftArm  -17.5407 15.6556 -21.726
LeftForeArm  30.3178 -74.3212 -42.1229
LeftHand  -0.25398 0.0180481 5.50724
RightShoulder  5.41115 9.848 34.573
RightArm  -6.62767 -12.3119 26.7661
RightForeArm  5.04152 75.9866 59.9271
RightHand  0.810485 -13.1046 -13.0564
LeftUpLeg  -21.6469 24.8995 -13.8707
LeftLeg  23.9229 7.19527 3.81237
LeftFoot  -2.58781 -1.07085 14.141
LeftToes  1.06248e-005 4.65854e-005 -8.185e-006
444
root  -14.9425 38.1341 -25.1583 -162.282 -79.7818 155.813
RightUpLeg  -7.06625 -10.1237 -13.3165
RightLeg  67.219 -1.23623 -3.98591
RightFoot  12.0103 -0.455597 2.52089
RightToes  0.000482159 0.542163 -0.142577
Spine  20.4442 0.271147 3.25365
Spine1  11.9317 3.0075 -7.02791
HEad  0.340101 5.14727 -7.59694
LeftShoulder1  8.88079 -13.8332 -44.6236
LeftArm  -17.3527 14.1324 -21.6012
LeftForeArm  27.3221 -73.5009 -39.5859
LeftHand  -0.25398 0.0180481 5.50724
RightShoulder  5.41654 10.0323 34.0666
RightArm  -6.32883 -9.76773 26.4815
RightForeArm  0.968673 75.4671 56.5917
RightHand  0.807745 -13.0941 -13.0309
LeftUpLeg  -21.2444 24.5758 -15.3609
LeftLeg  24.8552 7.00541 3.87231
LeftFoot  -4.39148 -0.787918 13.3804
LeftToes  1.06248e-005 4.65854e-005 -8.185e-006
445
root  -16.2133 38.4857 -25.3934 -156.762 -81.3834 150.204
RightUpLeg  -12.4954 -9.75807 -13.2024
RightLeg  69.051 -0.55932 -2.4325
RightFoot  9.64176 -0.592183 3.60694
RightToes  0.000482159 0.542163 -0.142577
Spine  21.4593 -0.640221 1.88671
Spine1  12.8583 1.31941 -5.22394
HEad  -0.285462 6.01196 -8.25864
LeftShoulder1  8.94064 -13.9777 -44.5494
LeftArm  -17.1189 12.2939 -21.6411
LeftForeArm  23.8765 -72.3513 -36.4891
LeftHand  -0.25398 0.0180481 5.50724
RightShoulder  5.41958 10.186 33.642
RightArm  -6.09889 -7.40627 26.2682
RightForeArm  -3.68743 74.7985 52.9623
RightHand  0.820836 -12.8576 -13.617
LeftUpLeg  -18.178 23.0252 -14.6574
LeftLeg  24.2295 6.8546 3.70126
LeftFoot  -5.32049 -0.665902 13.1955
LeftToes  1.06248e-005 4.65854e-005 -8.185e-006
446
root  -17.3301 38.7937 -25.5537 -154.936 -82.0074 148.893
RightUpLeg  -18.3679 -8.82094 -12.5156
RightLeg  67.1575 -0.398692 -1.73893
RightFoot  7.07376 -0.90102 5.82297
RightToes  0.000482159 0.542163 -0.142577
Spine  23.1346 -1.24582 1.93633
Spine1  12.3513 0.556218 -4.94215
HEad  -0.238156 6.26495 -8.32279
LeftShoulder1  9.07685 -14.2357 -44.5713
LeftArm  -16.8986 10.2145 -21.7428
LeftForeArm  20.2944 -70.8387 -33.0437
LeftHand  -0.25398 0.0180481 5.50724
RightShoulder  5.41027 10.1971 33.5431
RightArm  -6.08619 -5.83047 25.9319
RightForeArm  -7.02726 74.3405 50.8713
RightHand  0.815845 -12.0731 -15.0177
LeftUpLeg  -16.207 22.3395 -13.8423
LeftLeg  23.6926 7.05103 3.71759
LeftFoot  -6.66349 -0.444128 11.7728
LeftToes  1.06248e-005 4.65854e-005 -8.185e-006
447
root  -18.4704 39.0736 -25.754 -152.142 -83.2002 146.532
RightUpLeg  -22.7124 -8.81215 -11.4724
RightLeg  61.6264 -0.982104 -2.46701
RightFoot  5.88135 -0.695487 4.83634
RightToes  0.000482159 0.542163 -0.142577
Spine  24.6874 -1.87434 2.1246
Spine1  11.6866 -0.275471 -4.3099
HEad  0.0625317 6.10718 -8.00237
LeftShoulder1  9.19167 -14.448 -44.6027
LeftArm  -16.655 8.08939 -21.9574
LeftForeArm  17.3733 -69.301 -30.1247
LeftHand  -0.25398 0.0180481 5.50724
RightShoulder  5.37148 10.0927 33.5611
RightArm  -6.16735 -5.0616 25.4077
RightForeArm  -8.33426 74.3044 50.8673
RightHand  0.748423 -10.9608 -16.4414
LeftUpLeg  -13.9776 21.7318 -12.7436
LeftLeg  23.0077 6.42294 3.32515
LeftFoot  -7.81893 -0.257741 9.93598
LeftToes  1.06248e-005 4.65854e-005 -8.185e-006
448
root  -19.6288 39.2877 -25.9776 -145.095 -84.4141 139.994
RightUpLeg  -25.3607 -9.35746 -10.5248
RightLeg  52.687 -2.14711 -3.40737
RightFoot  4.32061 -0.426164 3.33624
RightToes  0.000482159 0.542163 -0.142577
Spine  25.895 -2.44798 1.97845
Spine1  11.119 -1.18908 -3.39841
HEad  0.128528 5.98348 -7.68886
LeftShoulder1  9.19379 -14.5039 -44.4682
LeftArm  -16.4093 6.18044 -22.3652
LeftForeArm  15.3753 -68.0282 -28.0549
LeftHand  -0.25398 0.0180481 5.50724
RightShoulder  5.30188 9.98643 33.3575
RightArm  -6.19074 -4.76456 24.9747
RightForeArm  -8.79147 74.4728 51.8343
RightHand  0.670809 -10.0719 -17.5199
LeftUpLeg  -12.0499 20.7961 -11.9794
LeftLeg  22.5312 5.83288 2.99115
LeftFoot  -8.6687 -0.166007 9.3938
LeftToes  1.06248e-005 4.65854e-005 -8.185e-006
